<?xml version="1.0" encoding="iso-8859-1"?>
<!-- Generator: Adobe Illustrator 19.0.0, SVG Export Plug-In . SVG Version: 6.00 Build 0)  -->
<svg version="1.1" id="Capa_1" xmlns="http://www.w3.org/2000/svg" xmlns:xlink="http://www.w3.org/1999/xlink" x="0px" y="0px"
	 viewBox="0 0 512.04 512.04" style="enable-background:new 0 0 512.04 512.04;" xml:space="preserve">
<g transform="translate(-1)">
	<g>
		<g>
			<path d="M500.536,439.074L377.554,316.096c50.902-78.592,41.99-181.703-21.64-250.397S190.154-19.759,107.902,24.989
				C25.65,69.736-15.756,164.587,7.35,255.328s104.834,154.237,198.47,154.197c39.547,0.032,78.247-11.457,111.369-33.064
				l122.981,122.985c16.671,16.67,43.699,16.669,60.369-0.002C517.208,482.772,517.207,455.744,500.536,439.074z M205.819,392.458
				c-103.682,0-187.733-84.051-187.733-187.733c0.117-103.634,84.1-187.616,187.733-187.733
				c103.682,0,187.733,84.051,187.733,187.733S309.502,392.458,205.819,392.458z M488.469,487.371
				c-10.147,9.655-26.084,9.657-36.233,0.004L331.282,366.421c13.535-10.526,25.705-22.697,36.231-36.231l120.956,120.952
				C498.453,461.155,498.453,477.357,488.469,487.371z"/>
			<path d="M473.466,461.516c-3.726-1.522-8.007-0.205-10.235,3.146s-1.783,7.809,1.063,10.654c1.637,1.556,3.8,2.44,6.059,2.475
				c4.024-0.039,7.462-2.911,8.218-6.863S477.191,463.037,473.466,461.516z"/>
			<path d="M350.261,295.209c26.122-41.399,33.129-92.05,19.226-138.985c-13.903-46.935-47.366-85.599-91.821-106.091
				c-0.316-0.178-0.643-0.336-0.98-0.472c-5.176-2.377-10.468-4.492-15.857-6.335c-0.156-0.06-0.264-0.186-0.426-0.239
				c-0.132-0.043-0.359-0.07-0.525-0.11c-35.058-11.892-73.059-11.892-108.117,0c-0.166,0.04-0.393,0.067-0.525,0.11
				c-0.162,0.052-0.269,0.178-0.426,0.239c-5.388,1.843-10.679,3.957-15.854,6.334c-0.338,0.137-0.666,0.295-0.984,0.474
				C89.518,70.626,56.055,109.29,42.152,156.226s-6.896,97.587,19.227,138.985c0.259,0.556,0.578,1.082,0.953,1.568
				c5.54,8.581,11.835,16.649,18.811,24.11c0.307,0.408,0.651,0.787,1.028,1.131c32.106,34.062,76.84,53.371,123.648,53.371
				s91.542-19.309,123.648-53.371c0.377-0.345,0.721-0.724,1.029-1.132c6.974-7.459,13.269-15.527,18.808-24.106
				C349.68,296.295,350.001,295.768,350.261,295.209z M256.057,59.733c4.506,1.566,8.912,3.326,13.22,5.28
				c3.077,3.122,4.804,7.328,4.809,11.711c0.026,9.307-7.409,16.919-16.713,17.111s-17.048-7.105-17.407-16.405
				S246.765,60.258,256.057,59.733z M257.019,110.858c14.138,0,25.6,11.461,25.6,25.6l0.008,25.6h-51.208v-25.6
				C231.419,122.319,242.881,110.858,257.019,110.858z M142.362,65.013c4.307-1.964,8.715-3.724,13.224-5.281
				c9.019,0.508,16.078,7.959,16.099,16.993c0,9.426-7.641,17.067-17.067,17.067c-9.426,0-17.067-7.641-17.067-17.067
				C137.558,72.341,139.285,68.135,142.362,65.013z M154.619,110.858c14.138,0,25.6,11.461,25.6,25.6l0.009,25.6h-51.209v-25.6
				C129.019,122.319,140.481,110.858,154.619,110.858z M77.819,289.443v-5.994c0.029-7.756,3.219-15.165,8.833-20.517
				c4.764-4.73,11.284-7.259,17.992-6.979c13.659,0.627,24.403,11.897,24.375,25.571l0,25.6h-37.36
				C86.623,301.574,81.997,295.665,77.819,289.443z M86.353,221.791c0-9.426,7.641-17.067,17.067-17.067s17.067,7.641,17.067,17.067
				c-0.011,9.421-7.645,17.056-17.067,17.067C93.994,238.858,86.353,231.217,86.353,221.791z M333.819,289.443
				c-4.178,6.222-8.803,12.131-13.84,17.681h-37.36v-23.675c0.029-7.756,3.219-15.165,8.833-20.517
				c4.764-4.73,11.284-7.26,17.992-6.979c13.659,0.627,24.403,11.897,24.375,25.571V289.443z M291.153,221.791
				c0-9.426,7.641-17.067,17.067-17.067s17.067,7.641,17.067,17.067c-0.011,9.421-7.645,17.056-17.067,17.067
				C298.794,238.858,291.153,231.217,291.153,221.791z M332.045,246.163c10.016-9.723,13.109-24.56,7.813-37.475
				c-5.296-12.915-17.916-21.309-31.875-21.201c-13.958,0.108-26.447,8.698-31.541,21.693c-5.095,12.996-1.771,27.784,8.395,37.349
				c-1.818,1.219-3.543,2.572-5.16,4.049c-8.984,8.579-14.085,20.449-14.125,32.871v23.675c0.011,9.421,7.646,17.056,17.067,17.067
				h19.53c-56.157,45.511-136.503,45.511-192.659,0h19.53c9.421-0.011,17.056-7.645,17.067-17.067v-25.6
				c-0.005-11.337-4.51-22.208-12.525-30.225c-1.94-1.905-4.055-3.625-6.316-5.136c10.017-9.723,13.11-24.562,7.814-37.477
				c-5.297-12.916-17.918-21.31-31.877-21.2c-13.959,0.109-26.447,8.7-31.541,21.697c-5.094,12.997-1.768,27.785,8.4,37.35
				c-1.82,1.218-3.546,2.57-5.164,4.046c-4.331,4.156-7.799,9.126-10.208,14.624c-29.2-67.971-5.708-147.1,55.852-188.127
				c0.087,9.051,3.78,17.693,10.261,24.011c-11.768,7.925-18.825,21.183-18.83,35.371v25.6c0.011,9.421,7.645,17.056,17.067,17.067
				h51.2c9.421-0.011,17.056-7.646,17.067-17.067v-25.6c-0.004-14.188-7.062-27.445-18.83-35.371
				c13.301-12.888,13.777-34.072,1.068-47.544c17.382-3.225,35.209-3.225,52.591,0c-12.709,13.472-12.234,34.656,1.067,47.544
				c-11.768,7.925-18.826,21.183-18.83,35.371v25.6c0.011,9.421,7.645,17.056,17.067,17.067h51.2
				c9.421-0.011,17.056-7.646,17.067-17.067v-25.6c-0.004-14.188-7.062-27.445-18.83-35.371c6.481-6.318,10.174-14.96,10.261-24.011
				c61.31,40.896,84.89,119.601,56.168,187.471C344.14,257.044,338.835,250.645,332.045,246.163z"/>
			<path d="M229.656,246.154c9.936-9.695,13.011-24.441,7.778-37.299c-5.233-12.858-17.733-21.265-31.615-21.265
				s-26.381,8.408-31.615,21.265c-5.233,12.858-2.158,27.604,7.778,37.299c-11.768,7.925-18.826,21.183-18.83,35.371v25.6
				c0.011,9.421,7.645,17.056,17.067,17.067h51.2c9.421-0.011,17.056-7.645,17.067-17.067v-25.6
				C248.482,267.337,241.424,254.079,229.656,246.154z M205.819,204.724c9.426,0,17.067,7.641,17.067,17.067
				s-7.641,17.067-17.067,17.067c-9.421-0.011-17.056-7.646-17.067-17.067C188.753,212.365,196.394,204.724,205.819,204.724z
				 M180.219,307.124v-25.6c0-14.138,11.461-25.6,25.6-25.6s25.6,11.462,25.6,25.6l0.009,25.6H180.219z"/>
		</g>
	</g>
</g>
<g>
</g>
<g>
</g>
<g>
</g>
<g>
</g>
<g>
</g>
<g>
</g>
<g>
</g>
<g>
</g>
<g>
</g>
<g>
</g>
<g>
</g>
<g>
</g>
<g>
</g>
<g>
</g>
<g>
</g>
</svg>
